<?xml version="1.0" standalone="no"?>
<!DOCTYPE svg PUBLIC "-//W3C//DTD SVG 20010904//EN"
 "http://www.w3.org/TR/2001/REC-SVG-20010904/DTD/svg10.dtd">
<svg version="1.0" xmlns="http://www.w3.org/2000/svg"
 width="260.000000pt" height="260.000000pt" viewBox="0 0 260.000000 260.000000"
 preserveAspectRatio="xMidYMid meet">
<metadata>
Created by potrace 1.16, written by Peter Selinger 2001-2019
</metadata>
<g transform="translate(0.000000,260.000000) scale(0.100000,-0.100000)"
fill="#000000" stroke="none">
<path d="M464 2030 c-54 -23 -107 -72 -137 -123 -35 -59 -67 -159 -67 -207 l0
-40 290 0 290 0 0 194 0 195 -168 0 c-140 -1 -175 -4 -208 -19z"/>
<path d="M1012 1858 l3 -193 288 -3 287 -2 -2 192 -3 193 -288 3 -287 2 2
-192z"/>
<path d="M1755 1997 c-3 -28 -4 -115 -1 -192 l4 -140 293 -3 292 -2 -6 57
c-11 120 -81 242 -171 298 l-49 30 -178 2 -178 3 -6 -53z"/>
<path d="M260 1300 l0 -190 290 0 290 0 0 190 0 190 -290 0 -290 0 0 -190z"/>
<path d="M1758 1483 c-3 -5 -4 -89 -3 -188 l2 -180 291 -3 292 -2 0 190 0 190
-289 0 c-160 0 -291 -3 -293 -7z"/>
<path d="M260 898 c0 -58 40 -167 82 -225 19 -27 56 -63 82 -80 l48 -33 184 0
184 0 0 190 0 190 -290 0 -290 0 0 -42z"/>
<path d="M1010 750 l0 -190 290 0 290 0 0 190 0 190 -290 0 -290 0 0 -190z"/>
<path d="M1755 795 c-4 -79 -4 -165 -1 -190 l7 -45 183 0 184 0 48 33 c26 17
63 53 82 80 42 58 82 167 82 225 l0 42 -289 0 -289 0 -7 -145z"/>
</g>
</svg>
