<svg xmlns="http://www.w3.org/2000/svg" xmlns:xlink="http://www.w3.org/1999/xlink" viewBox="0 0 67 66" fill="#fff" fill-rule="evenodd" stroke="#000" stroke-linecap="round" stroke-linejoin="round"><use xlink:href="#A" x="1" y="1"/><symbol id="A" overflow="visible"><path d="M62.795 29.15L34.853 1.207a4.12 4.12 0 0 0-5.828 0l-5.8 5.8 7.36 7.36c1.712-.6 3.672-.2 5.036 1.174a4.9 4.9 0 0 1 1.162 5.066l7.094 7.094c1.716-.592 3.696-.2 5.066 1.164 1.24 1.24 1.723 3.046 1.27 4.738s-1.776 3.015-3.47 3.468-3.5-.03-4.738-1.27c-1.44-1.44-1.796-3.56-1.068-5.334L34.32 23.85v17.4c.48.238.92.55 1.3.928 1.915 1.915 1.915 5.02-.001 6.935s-5.02 1.915-6.935 0-1.915-5.02 0-6.935a4.71 4.71 0 0 1 1.606-1.07V23.547a4.87 4.87 0 0 1-1.606-1.07 4.9 4.9 0 0 1-1.056-5.362L20.37 9.86 1.21 29A4.12 4.12 0 0 0 0 31.914a4.12 4.12 0 0 0 1.209 2.915l27.944 27.94a4.12 4.12 0 0 0 5.828 0L62.795 35a4.12 4.12 0 0 0 0-5.83" stroke="none" fill="#f03c2e" fill-rule="nonzero"/></symbol></svg>