<svg width="160" height="95" viewBox="0 0 160 95" fill="none" xmlns="http://www.w3.org/2000/svg">
<path fill-rule="evenodd" clip-rule="evenodd" d="M86.9299 0L86.9299 38.4042L106.681 19.0388L126.255 0L86.9299 0Z" fill="#FC493E"/>
<path fill-rule="evenodd" clip-rule="evenodd" d="M33.1162 0L52.6901 19.0388L72.4416 38.4042V0L33.1162 0Z" fill="#FC493E"/>
<path fill-rule="evenodd" clip-rule="evenodd" d="M0 44.468L0 51.0514H11.8379L11.8379 82.8723H19.2085L19.2085 51.0514H31.0464V44.468L0 44.468Z" fill="white"/>
<path fill-rule="evenodd" clip-rule="evenodd" d="M38.9475 59.556H39.7489C40.8372 56.5005 43.242 55.4449 46.8498 55.4449H49.5982V61.7782L45.3604 61.7782C41.6961 61.7782 39.0617 63.6671 39.0617 67.556L39.0617 83.1113H31.8466L31.8466 55.5563H38.9475V59.556Z" fill="white"/>
<path fill-rule="evenodd" clip-rule="evenodd" d="M53.2628 83.1113H60.478L60.478 55.5563H53.2628L53.2628 83.1113ZM56.8704 42.7782C59.7333 42.7782 61.9669 44.7227 61.9669 47.5563C61.9669 50.3896 59.7333 52.3341 56.8704 52.3341C54.0073 52.3341 51.774 50.3896 51.774 47.5563C51.774 44.7227 54.0073 42.7782 56.8704 42.7782Z" fill="white"/>
<path fill-rule="evenodd" clip-rule="evenodd" d="M77.8284 78.1112C82.8675 78.1112 85.6729 75.2226 85.6729 71.4448V71.0001L76.9694 72.0004C74.278 72.3334 72.961 73.2781 72.961 74.889C72.961 76.7779 74.6213 78.1112 77.8284 78.1112ZM80.1186 54.7784C87.8492 54.7784 92.8883 59.0559 92.8883 65.5004V83.1112H85.7877V79.2223H84.986C84.0698 81.0559 82.0656 83.889 76.0529 83.889C69.6397 83.889 65.4022 80.5556 65.4022 75.2781C65.4022 70.8893 69.3534 67.8337 74.7931 67.2781L85.6729 66.1115V65.4448C85.6729 62.8337 83.6117 60.7784 79.7181 60.7784C75.9384 60.7784 73.5906 62.667 71.8157 65.5559L65.9749 61.8895C69.3534 57.7784 73.19 54.7784 80.1186 54.7784Z" fill="white"/>
<path fill-rule="evenodd" clip-rule="evenodd" d="M120.031 68.8892C120.031 63.8892 116.71 61.0006 112.243 61.0006C107.891 61.0006 104.456 63.7784 104.456 68.8892C104.456 74.0001 107.891 76.7778 112.243 76.7778C116.71 76.7778 120.031 73.8892 120.031 68.8892ZM127.246 55.5562V82.1667C127.246 89.7223 121.577 95 112.644 95C104.856 95 100.447 91.5556 97.5843 87.2223L103.654 83.5556C105.142 86.3889 107.891 88.9998 112.186 88.9998C116.652 88.9998 120.031 86.7778 120.031 81.8889V78.3334H119.344C117.855 80.6667 115.335 83.0001 110.296 83.0001C103.196 83.0001 97.2401 77.1114 97.2401 68.8892C97.2401 60.667 103.196 54.7784 110.296 54.7784C115.335 54.7784 117.855 57.1117 119.344 59.4451H120.145V55.5562H127.246Z" fill="white"/>
<path fill-rule="evenodd" clip-rule="evenodd" d="M152.67 66.5005C152.155 63.0005 149.864 60.7782 146.142 60.7782C142.077 60.7782 139.958 63.1116 139.385 66.5005H152.67ZM146.199 54.7785C154.445 54.7785 160 60.3893 160 68.6671V71.3893H139.328C139.614 75.0557 142.306 77.8891 146.429 77.8891C150.437 77.8891 152.556 75.7224 153.529 73.778L159.427 77.1113C157.48 80.0002 154.159 83.8891 146.543 83.8891C138.068 83.8891 131.941 77.6668 131.941 69.1113C131.941 60.7782 137.839 54.7785 146.199 54.7785Z" fill="white"/>
</svg>
