<svg width="964" height="269" viewBox="0 0 964 269" fill="none" xmlns="http://www.w3.org/2000/svg">
<path fill-rule="evenodd" clip-rule="evenodd" d="M157.859 2.3003C131.746 2.2939 106.218 10.0315 84.5022 24.5345C62.7869 39.0375 45.8601 59.6545 35.8627 83.7779C25.8652 107.901 23.2458 134.448 28.3363 160.06C33.4268 185.672 45.9983 209.199 64.4607 227.666C82.9232 246.133 106.447 258.71 132.058 263.807C157.669 268.904 184.216 266.291 208.342 256.3C232.468 246.308 253.089 229.387 267.598 207.675C282.106 185.963 289.85 160.436 289.85 134.323C289.815 99.3248 275.899 65.769 251.155 41.0182C226.41 16.2674 192.858 2.3431 157.859 2.3003ZM157.859 242.095C136.536 242.095 115.692 235.772 97.9627 223.925C80.2337 212.078 66.4163 195.239 58.2578 175.538C50.0993 155.838 47.9661 134.16 52.1284 113.248C56.2906 92.3347 66.5614 73.1258 81.6414 58.0504C96.7213 42.975 115.933 32.7103 136.847 28.5543C157.761 24.3983 179.438 26.5377 199.136 34.7021C218.834 42.8665 235.669 56.6891 247.511 74.4217C259.353 92.1543 265.67 113 265.663 134.323C265.655 162.918 254.296 190.34 234.083 210.566C213.869 230.792 186.454 242.167 157.859 242.192V242.095ZM815.625 22.6157C812.434 22.7338 809.35 23.7504 806.75 25.5403C804.151 27.3301 802.151 29.815 800.996 32.6889C799.841 35.5628 799.582 38.7001 800.251 41.7144C800.92 44.7287 802.487 47.4884 804.759 49.6533C807.032 51.8182 809.911 53.294 813.041 53.8987C816.172 54.5034 819.417 54.2107 822.378 53.0566C825.338 51.9025 827.884 49.9374 829.702 47.4034C831.52 44.8695 832.531 41.8774 832.61 38.7957C832.637 36.6449 832.215 34.5109 831.368 32.5215C830.521 30.532 829.267 28.728 827.681 27.2174C826.095 25.7068 824.21 24.5207 822.138 23.73C820.067 22.9393 817.851 22.5603 815.625 22.6157ZM437.67 133.291C437.67 99.4653 461.242 74.5171 495.805 74.5171C527.093 74.5171 550.211 97.3918 550.503 131.444C550.557 134.409 550.318 137.372 549.79 140.29H464.127C466.462 155.939 477.194 168.057 497.264 168.057C508.029 168.057 515.713 164.557 519.701 157.818H548.395C541.911 178.101 521.711 191.871 496.518 191.871C461.242 191.871 437.67 165.983 437.67 133.291ZM495.805 97.3917C477.842 97.3917 467.564 108.57 464.516 123.733H523.138C521.257 107.403 511.465 97.3917 495.805 97.3917ZM377.459 120.552L397.919 123.773C414.635 126.801 430.674 134.21 430.9 155.696C430.9 178.986 410.15 191.872 382.493 191.872C357.418 191.872 334.183 181.435 331.601 151.283L356.224 151.508C358.58 164.49 368.326 170.063 383.203 170.063C396.208 170.063 405.277 165.425 405.277 158.016C405.277 152.217 400.63 148.029 392.013 146.419L368.1 142.457C351.351 139.429 335.57 130.86 335.57 110.92C335.57 88.886 354.384 75.6463 381.815 75.6463C400.468 75.6463 427.641 82.1533 430.222 112.079L405.341 112.305C404.244 101.063 394.175 96.1983 381.654 96.1983C368.616 96.1983 361.904 101.578 361.904 108.021C361.904 113.368 365.615 118.458 377.459 120.552ZM672.847 79.0307H638.479L589.819 128.777V79.0307H562.923V188.486H589.819V163.966L609.699 143.592L644.066 188.486H679.148L628.409 124.375L672.847 79.0307ZM802.144 79.0307H828.097V188.486H802.144V79.0307ZM932.156 85.8932V78.2087H958.992V188.181H932.156V180.496C922.25 187.393 910.401 190.977 898.319 190.732C867.496 190.732 842.767 165.353 842.767 133.292C842.767 101.23 867.496 75.6581 898.319 75.6581C910.401 75.4129 922.25 78.9969 932.156 85.8932ZM919.274 163.628C924.511 160.9 928.949 156.867 932.156 151.922V114.468C928.956 109.516 924.52 105.477 919.281 102.749C914.042 100.021 908.181 98.6959 902.273 98.9052C883.377 98.9052 869.603 115.243 869.603 133.292C869.603 151.34 883.377 167.484 902.273 167.484C908.179 167.684 914.037 166.355 919.274 163.628ZM729.362 75.6453C717.869 75.6453 706.633 79.0866 697.076 85.5341C687.52 91.9816 680.071 101.146 675.673 111.868C671.275 122.589 670.124 134.387 672.366 145.769C674.608 157.152 680.143 167.607 688.27 175.813C696.398 184.019 706.752 189.608 718.025 191.872C729.298 194.136 740.982 192.974 751.601 188.533C762.22 184.091 771.296 176.571 777.681 166.921C784.067 157.272 787.475 145.927 787.475 134.322C787.475 118.76 781.353 103.835 770.454 92.8313C759.556 81.8273 744.775 75.6453 729.362 75.6453ZM729.362 168.731C722.622 168.731 716.033 166.713 710.429 162.932C704.825 159.151 700.457 153.777 697.878 147.49C695.299 141.202 694.624 134.284 695.939 127.609C697.254 120.935 700.499 114.803 705.265 109.991C710.031 105.179 716.104 101.902 722.714 100.574C729.325 99.2465 736.176 99.9279 742.403 102.532C748.63 105.137 753.953 109.547 757.697 115.206C761.442 120.864 763.44 127.517 763.44 134.322C763.44 143.448 759.85 152.2 753.459 158.653C747.068 165.106 738.4 168.731 729.362 168.731ZM151.181 84.407C160.83 77.9595 172.175 74.5181 183.78 74.5181C199.342 74.5181 214.267 80.7001 225.271 91.7042C236.275 102.708 242.457 117.633 242.457 133.195C242.457 144.8 239.016 156.145 232.568 165.794C226.121 175.443 216.957 182.964 206.235 187.405C195.513 191.847 183.715 193.008 172.333 190.744C160.951 188.48 150.496 182.892 142.29 174.686C134.083 166.48 128.495 156.024 126.231 144.642C123.967 133.26 125.129 121.462 129.57 110.74C134.011 100.019 141.532 90.8545 151.181 84.407ZM164.664 161.805C170.322 165.586 176.975 167.604 183.78 167.604C192.903 167.595 201.651 163.968 208.102 157.516C214.553 151.065 218.181 142.318 218.189 133.195C218.189 126.39 216.171 119.737 212.39 114.078C208.609 108.42 203.235 104.01 196.948 101.405C190.66 98.8008 183.742 98.1194 177.067 99.4471C170.392 100.775 164.261 104.052 159.449 108.864C154.637 113.676 151.36 119.807 150.032 126.482C148.705 133.157 149.386 140.075 151.99 146.363C154.595 152.65 159.005 158.024 164.664 161.805ZM86.7372 85.8021H112.69V181.716H86.7372V85.8021Z" fill="#F5F5FA"/>
</svg>
