<svg xmlns="http://www.w3.org/2000/svg" height="666.653" width="666.667"><g fill="#3957af" fill-rule="evenodd"><path d="M529.212 63.615l3.508 70.75c57.36 63.366 79.999 153.106 51.447 237.447C541.545 497.716 401.004 563.9 270.26 519.639 139.515 475.379 68.076 337.433 110.697 211.53 139.344 126.908 212.228 69.265 296.64 54L342.247.115c-142.288-3.851-276.53 84.469-324.56 226.35-59.015 174.328 34.465 363.488 208.792 422.502C400.807 707.98 589.967 614.5 648.98 440.175c47.955-141.656-4.783-293.104-119.768-376.56"/><path d="M447.496 272.379l-2.413-98.908-1.938-56.914-1.312-49.306s.274-23.776-.557-29.363a9.14 9.14 0 00-.983-2.968l-.168-.348-.189-.307c-.91-1.569-2.345-2.844-4.2-3.472-1.897-.642-3.859-.484-5.564.254l-.105.038a8.472 8.472 0 00-.591.302 9.115 9.115 0 00-2.432 1.682c-4.055 3.934-18.279 22.987-18.279 22.987l-30.993 38.37-36.11 44.035-61.998 77.102s-28.45 35.508-22.164 79.214c6.287 43.707 38.78 64.999 63.99 73.532 25.206 8.535 63.951 11.359 95.495-19.542 31.543-30.9 30.511-76.388 30.511-76.388"/></g></svg>
