<svg width="660" height="660" viewBox="0 0 660 453" fill="none" xmlns="http://www.w3.org/2000/svg">
<path d="M436.298 373.27C516.935 373.27 582.464 307.64 582.464 227.103C582.464 146.467 516.835 80.9368 436.298 80.9368C355.762 80.9368 290.132 146.567 290.132 227.103C290.032 307.64 355.661 373.27 436.298 373.27ZM436.298 118.854C495.925 118.854 544.447 167.376 544.447 227.003C544.447 286.63 495.925 335.152 436.298 335.152C376.671 335.152 328.149 286.73 328.149 227.003C328.149 167.376 376.671 118.854 436.298 118.854ZM142.565 118.954H104.747V335.152H142.565V118.954ZM31.9144 423.893H627.385V28.0127H31.9144V423.893ZM621.482 418.19H37.717V33.7153H621.482V418.19Z" fill="#2D2E83"/>
</svg>
