<svg width="261" height="261" viewBox="0 0 261 261" fill="none" xmlns="http://www.w3.org/2000/svg">
<path fill-rule="evenodd" clip-rule="evenodd" d="M130.532 0.23682C104.767 0.23051 79.5791 7.865 58.1532 22.1747C36.7274 36.4843 20.0262 56.8264 10.162 80.6283C0.297848 104.43 -2.28662 130.623 2.73601 155.893C7.75864 181.164 20.1625 204.378 38.3789 222.599C56.5952 240.819 79.8059 253.229 105.075 258.258C130.345 263.287 156.538 260.709 180.343 250.85C204.147 240.992 224.493 224.296 238.808 202.874C253.123 181.451 260.763 156.265 260.763 130.5C260.729 95.968 246.999 62.8594 222.584 38.4386C198.169 14.0178 165.064 0.27905 130.532 0.23682ZM130.532 236.835C109.493 236.835 88.927 230.596 71.4343 218.907C53.9416 207.218 40.3084 190.604 32.2587 171.166C24.2089 151.728 22.1041 130.339 26.2109 109.705C30.3177 89.071 40.4516 70.1182 55.3305 55.2438C70.2094 40.3693 89.1653 30.2414 109.801 26.1408C130.436 22.0402 151.823 24.1511 171.259 32.2067C190.694 40.2623 207.305 53.9006 218.989 71.3968C230.673 88.893 236.906 109.461 236.899 130.5C236.891 158.714 225.684 185.77 205.74 205.726C185.796 225.682 158.746 236.906 130.532 236.931V236.835ZM156.108 71.4917C144.657 71.4917 133.464 74.8872 123.943 81.2487C114.422 87.6103 107.002 96.6522 102.62 107.231C98.238 117.81 97.0913 129.451 99.3252 140.681C101.559 151.912 107.073 162.227 115.17 170.324C123.267 178.421 133.582 183.935 144.813 186.169C156.043 188.403 167.684 187.256 178.263 182.874C188.842 178.492 197.884 171.072 204.245 161.551C210.607 152.03 214.002 140.837 214.002 129.386C214.002 114.032 207.903 99.306 197.045 88.4487C186.188 77.5913 171.462 71.4917 156.108 71.4917ZM156.108 163.337C149.393 163.337 142.829 161.346 137.246 157.615C131.663 153.885 127.311 148.582 124.741 142.379C122.172 136.175 121.5 129.349 122.81 122.763C124.12 116.177 127.353 110.128 132.101 105.38C136.849 100.632 142.898 97.3983 149.484 96.0884C156.07 94.7784 162.896 95.4507 169.1 98.0203C175.303 100.59 180.606 104.941 184.336 110.525C188.067 116.108 190.058 122.672 190.058 129.386C190.05 138.388 186.47 147.019 180.105 153.384C173.74 159.749 165.109 163.328 156.108 163.337ZM60.3584 82.6257H85.9657V177.261H60.3584V82.6257Z" fill="#5D4FF2"/>
</svg>
