<svg width="24" height="24" viewBox="0 0 24 24" fill="none" xmlns="http://www.w3.org/2000/svg">
<path d="M13.5 0.669998C13.5 0.669998 14.24 3.32 14.24 5.47C14.24 7.53 12.89 9.2 10.83 9.2C8.76 9.2 7.2 7.53 7.2 5.47L7.23 5.11C5.21 7.51 4 10.62 4 14C4 18.42 7.58 22 12 22C16.42 22 20 18.42 20 14C20 8.61 17.41 3.8 13.5 0.669998ZM11.71 19C9.93 19 8.49 17.6 8.49 15.86C8.49 14.24 9.54 13.1 11.3 12.74C13.07 12.38 14.9 11.53 15.92 10.16C16.31 11.45 16.51 12.81 16.51 14.2C16.51 16.85 14.36 19 11.71 19Z" fill="black"/>
</svg>
