<svg width="1446" height="420" viewBox="0 0 1446 420" fill="none" xmlns="http://www.w3.org/2000/svg">
<path fill-rule="evenodd" clip-rule="evenodd" d="M216.549 10.1016C176.991 10.0919 138.318 21.8135 105.422 43.7839C72.5257 65.7543 46.8836 96.9866 31.7386 133.531C16.5935 170.075 12.6254 210.29 20.337 249.09C28.0485 287.889 47.0928 323.53 75.0614 351.506C103.03 379.481 138.667 398.534 177.464 406.255C216.262 413.976 256.478 410.018 293.026 394.882C329.574 379.746 360.812 354.112 382.791 321.221C404.769 288.33 416.5 249.66 416.5 210.102C416.448 157.083 395.367 106.249 357.882 68.7548C320.396 31.2602 269.568 10.1664 216.549 10.1016ZM216.549 373.364C184.247 373.364 152.671 363.785 125.813 345.837C98.9556 327.89 78.0239 302.382 65.6647 272.538C53.3055 242.694 50.0739 209.855 56.3792 178.174C62.6846 146.493 78.2437 117.394 101.088 94.5567C123.932 71.7192 153.036 56.1692 184.719 49.8734C216.401 43.5775 249.239 46.8185 279.079 59.1867C308.92 71.5548 334.423 92.4945 352.362 119.357C370.301 146.22 379.87 177.8 379.86 210.102C379.847 253.419 362.641 294.961 332.019 325.6C301.398 356.24 259.867 373.472 216.549 373.511V373.364ZM1212.99 40.8772C1208.16 41.0561 1203.48 42.5961 1199.55 45.3075C1195.61 48.019 1192.58 51.7833 1190.83 56.1369C1189.08 60.4905 1188.69 65.2433 1189.7 69.8096C1190.71 74.3759 1193.09 78.5564 1196.53 81.8361C1199.97 85.1157 1204.33 87.3513 1209.08 88.2673C1213.82 89.1834 1218.74 88.7399 1223.22 86.9916C1227.7 85.2433 1231.56 82.2664 1234.32 78.4278C1237.07 74.5892 1238.6 70.0565 1238.72 65.388C1238.76 62.1298 1238.12 58.8971 1236.84 55.8833C1235.56 52.8695 1233.66 50.1365 1231.25 47.8481C1228.85 45.5598 1226 43.763 1222.86 42.5652C1219.72 41.3674 1216.36 40.7932 1212.99 40.8772ZM640.432 208.538C640.432 157.296 676.14 119.502 728.499 119.502C775.898 119.502 810.919 154.154 811.361 205.74C811.442 210.232 811.08 214.72 810.28 219.14H680.511C684.048 242.847 700.306 261.204 730.71 261.204C747.017 261.204 758.657 255.903 764.699 245.694H808.168C798.344 276.419 767.744 297.28 729.58 297.28C676.14 297.28 640.432 258.063 640.432 208.538ZM728.499 154.154C701.288 154.154 685.718 171.088 681.101 194.059H769.906C767.057 169.321 752.223 154.154 728.499 154.154ZM549.218 189.239L580.212 194.119C605.536 198.706 629.834 209.93 630.176 242.48C630.176 277.762 598.741 297.281 556.844 297.281C518.859 297.281 483.66 281.47 479.749 235.794L517.05 236.136C520.619 255.802 535.383 264.244 557.92 264.244C577.622 264.244 591.359 257.217 591.359 245.993C591.359 237.209 584.319 230.865 571.266 228.425L535.04 222.423C509.667 217.836 485.762 204.855 485.762 174.648C485.762 141.27 514.263 121.213 555.817 121.213C584.074 121.213 625.238 131.07 629.149 176.405L591.457 176.747C589.794 159.716 574.542 152.347 555.573 152.347C535.823 152.347 525.654 160.496 525.654 170.256C525.654 178.357 531.276 186.067 549.218 189.239ZM996.698 126.34H944.634L870.92 201.7V126.34H830.175V292.152H870.92V255.007L901.036 224.143L953.098 292.152H1006.24L929.38 195.031L996.698 126.34ZM1192.57 126.34H1231.88V292.152H1192.57V126.34ZM1389.52 136.736V125.095H1430.18V291.69H1389.52V280.049C1374.52 290.496 1356.57 295.925 1338.26 295.554C1291.57 295.554 1254.11 257.109 1254.11 208.539C1254.11 159.969 1291.57 121.231 1338.26 121.231C1356.57 120.859 1374.52 126.289 1389.52 136.736ZM1370.01 254.495C1377.94 250.363 1384.66 244.253 1389.52 236.762V180.023C1384.67 172.521 1377.95 166.403 1370.02 162.27C1362.08 158.137 1353.2 156.131 1344.25 156.447C1315.63 156.447 1294.76 181.197 1294.76 208.539C1294.76 235.881 1315.63 260.337 1344.25 260.337C1353.2 260.64 1362.07 258.627 1370.01 254.495ZM1082.31 121.211C1064.9 121.211 1047.88 126.424 1033.4 136.191C1018.93 145.959 1007.64 159.841 1000.98 176.083C994.316 192.326 992.573 210.198 995.969 227.441C999.366 244.684 1007.75 260.522 1020.06 272.954C1032.37 285.385 1048.06 293.851 1065.14 297.281C1082.21 300.71 1099.92 298.95 1116 292.222C1132.09 285.495 1145.84 274.101 1155.51 259.484C1165.18 244.866 1170.35 227.68 1170.35 210.1C1170.35 186.525 1161.07 163.916 1144.56 147.246C1128.05 130.576 1105.66 121.211 1082.31 121.211ZM1082.31 262.226C1072.1 262.226 1062.12 259.169 1053.63 253.441C1045.14 247.713 1038.52 239.572 1034.62 230.047C1030.71 220.523 1029.69 210.042 1031.68 199.93C1033.67 189.819 1038.59 180.531 1045.81 173.241C1053.03 165.951 1062.23 160.987 1072.24 158.975C1082.26 156.964 1092.63 157.996 1102.07 161.942C1111.5 165.887 1119.56 172.568 1125.24 181.14C1130.91 189.712 1133.94 199.79 1133.94 210.1C1133.94 223.924 1128.5 237.183 1118.82 246.958C1109.13 256.734 1096 262.226 1082.31 262.226ZM206.433 134.484C221.05 124.717 238.236 119.504 255.817 119.504C279.392 119.504 302.001 128.869 318.671 145.539C335.34 162.209 344.706 184.818 344.706 208.393C344.706 225.973 339.492 243.159 329.725 257.777C319.958 272.394 306.076 283.788 289.833 290.515C273.591 297.243 255.718 299.003 238.475 295.574C221.233 292.144 205.394 283.678 192.963 271.247C180.532 258.815 172.065 242.977 168.636 225.734C165.206 208.491 166.967 190.619 173.694 174.376C180.422 158.134 191.815 144.252 206.433 134.484ZM226.857 251.734C235.429 257.462 245.507 260.519 255.817 260.519C269.637 260.506 282.889 255.01 292.661 245.237C302.434 235.464 307.93 222.213 307.943 208.393C307.943 198.083 304.885 188.005 299.158 179.433C293.43 170.861 285.289 164.18 275.764 160.235C266.24 156.289 255.759 155.257 245.647 157.268C235.536 159.28 226.248 164.244 218.958 171.534C211.668 178.824 206.704 188.112 204.693 198.224C202.681 208.335 203.713 218.816 207.659 228.341C211.604 237.865 218.285 246.006 226.857 251.734ZM108.808 136.598H148.124V281.897H108.808V136.598Z" fill="#0A083B"/>
</svg>
