<svg xmlns="http://www.w3.org/2000/svg" xmlns:xlink="http://www.w3.org/1999/xlink" viewBox="0 0 66 66" fill="#fff" fill-rule="evenodd" stroke="#000" stroke-linecap="round" stroke-linejoin="round"><use xlink:href="#A" x="1" y="1"/><symbol id="A" overflow="visible"><g stroke="none" fill-rule="nonzero"><path d="M60.212 63.8c1.994 0 3.588-1.596 3.588-3.588V3.588C63.8 1.596 62.206 0 60.212 0H3.588C1.594 0 0 1.596 0 3.588v56.8a3.57 3.57 0 0 0 3.588 3.592h56.624z" fill="#e8621d"/><path d="M13.36 12.76s36.286-1.794 39.08 36.486h-7.4s1.414-27.912-31.68-30.306v-6.2zm0 12.76s21.334-.8 25.32 23.726h-7.4s-.8-14.554-17.944-17.744v-6zm3.986 15.95c2.592 0 4.586 1.994 4.586 4.586s-1.994 4.586-4.586 4.586-4.586-1.994-4.586-4.586c-.2-2.592 1.994-4.586 4.586-4.586z"/></g></symbol></svg>