<svg
        width="25"
        height="24"
        viewBox="0 0 25 24"
        fill="none"
        xmlns="http://www.w3.org/2000/svg"
      >
        <path
          fill-rule="evenodd"
          clip-rule="evenodd"
          d="M16.2104 14H15.4204L15.1404 13.73C16.1204 12.59 16.7104 11.11 16.7104 9.5C16.7104 5.91 13.8004 3 10.2104 3C6.62045 3 3.71045 5.91 3.71045 9.5C3.71045 13.09 6.62045 16 10.2104 16C11.8204 16 13.3004 15.41 14.4404 14.43L14.7104 14.71V15.5L19.7104 20.49L21.2004 19L16.2104 14ZM10.2104 14C7.72045 14 5.71045 11.99 5.71045 9.5C5.71045 7.01 7.72045 5 10.2104 5C12.7004 5 14.7104 7.01 14.7104 9.5C14.7104 11.99 12.7004 14 10.2104 14Z"
          fill="black"
        />
      </svg>