<svg width="92" height="24" viewBox="0 0 92 24" fill="none" xmlns="http://www.w3.org/2000/svg">
<path d="M87.5088 11.6514C87.5088 10.9137 87.2253 10.3416 86.7095 9.94939C86.1881 9.553 85.414 9.32921 84.4182 9.3292C83.4708 9.3292 82.6707 9.53705 82.1078 9.94722C81.5512 10.3528 81.2119 10.9663 81.1963 11.8173L81.1935 11.9698H77.3383L77.3442 11.8086C77.4114 10.0033 78.1625 8.62955 79.4161 7.71151C80.6644 6.79743 82.3973 6.34478 84.4182 6.34478C86.4869 6.34479 88.2323 6.79694 89.4631 7.79361C90.6996 8.79488 91.3938 10.3271 91.3938 12.4339V23.6087H87.7056V21.6927C87.7056 21.5172 87.6141 21.4896 87.5986 21.4896C87.5443 21.4896 87.5204 21.4985 87.4895 21.5209C87.4456 21.553 87.3922 21.6108 87.2903 21.7291L87.2889 21.7306C86.0448 23.1347 84.3622 23.9022 82.2868 23.9022C80.7186 23.9022 79.3437 23.4709 78.3581 22.6345C77.3693 21.7955 76.7867 20.5605 76.7867 18.9868C76.7867 17.3441 77.3968 16.1329 78.5052 15.2504C79.605 14.3748 81.1845 13.8309 83.112 13.487L85.1453 13.1283C86.0475 12.9652 86.6428 12.7978 87.0121 12.5669C87.193 12.4538 87.3143 12.3286 87.3918 12.1853C87.4694 12.0416 87.5088 11.8686 87.5088 11.6514ZM87.6072 16.6721V15.2786C87.4145 15.3904 87.1808 15.4819 86.9184 15.5616C86.5198 15.6825 86.0369 15.7815 85.4952 15.8794L83.8886 16.1731C82.6859 16.3994 81.8909 16.7268 81.3975 17.1599C80.9127 17.5854 80.7045 18.1262 80.7045 18.8238C80.7045 19.455 80.9201 19.9729 81.3211 20.3344C81.7239 20.6974 82.3307 20.9178 83.1393 20.9178C84.3035 20.9178 85.4217 20.5372 86.2465 19.8191C87.0687 19.1033 87.6072 18.0459 87.6072 16.6721Z" fill="black"/>
<path fill-rule="evenodd" clip-rule="evenodd" d="M70.5134 23.6087H74.4311V6.67087H70.5134V23.6087Z" fill="black"/>
<path d="M70.4889 5.4777C70.4889 5.50002 70.5153 5.51246 70.532 5.49769L74.439 2.04815V0H70.4889C70.4889 2.28739 70.4889 3.20708 70.4889 5.4777Z" fill="black"/>
<path fill-rule="evenodd" clip-rule="evenodd" d="M66.0077 21.59C67.3895 20.0825 68.1349 17.889 68.1349 15.1397C68.1349 12.3744 67.3896 10.1729 66.0079 8.6612C64.6244 7.14773 62.6203 6.34479 60.1427 6.34479C57.6814 6.34479 55.6693 7.14785 54.2738 8.66074C52.8798 10.1721 52.1178 12.3735 52.1178 15.1397C52.1178 17.8899 52.8799 20.0833 54.274 21.5905C55.6695 23.0991 57.6814 23.9022 60.1427 23.9022C62.6203 23.9022 64.6243 23.0993 66.0077 21.59ZM64.0531 15.1397C64.0531 13.4251 63.7595 12.0092 63.127 11.0265C62.5013 10.0544 61.5353 9.49217 60.1427 9.49217C58.7501 9.49217 57.7842 10.0544 57.1585 11.0265C56.526 12.0092 56.2324 13.4251 56.2324 15.1397C56.2324 16.8378 56.5259 18.2542 57.1586 19.2411C57.7847 20.2177 58.7509 20.7874 60.1427 20.7874C61.5345 20.7874 62.5007 20.2177 63.1268 19.2411C63.7596 18.2542 64.0531 16.8378 64.0531 15.1397Z" fill="black"/>
<path fill-rule="evenodd" clip-rule="evenodd" d="M41.8232 13.0094C41.7682 13.0636 41.7084 13.0934 41.6721 13.0934C41.6447 13.0934 41.6195 13.0832 41.6015 13.0653C41.5849 13.0488 41.5653 13.0168 41.5653 12.9555V2.12087e-05H37.6475V23.6087H41.5653V16.0852C41.5653 16.0239 41.5849 15.9919 41.6015 15.9755C41.6195 15.9576 41.6447 15.9473 41.6721 15.9472C41.7032 15.9472 41.7275 15.9523 41.7505 15.9637C41.7739 15.9753 41.8054 15.9984 41.8431 16.0484L41.8447 16.0506L41.8464 16.0526L47.9591 23.6087H52.8194L45.3546 14.4304L52.7235 6.67087H47.8352L41.8232 13.0094Z" fill="black"/>
<path fill-rule="evenodd" clip-rule="evenodd" d="M31.0777 18.5711C30.8954 19.7191 29.8271 20.82 27.7228 20.82C26.4079 20.82 25.4547 20.3108 24.8177 19.4715C24.2008 18.6586 23.8709 17.5227 23.8176 16.2081H35.2116L35.2226 16.0646C35.2559 15.6338 35.2559 15.2039 35.2559 14.7486C35.2559 12.051 34.5776 9.94676 33.2897 8.51547C31.9995 7.08171 30.1169 6.34478 27.7556 6.34478C25.2946 6.34479 23.2986 7.13945 21.9191 8.64894C20.5414 10.1566 19.7963 12.3583 19.7962 15.1397C19.7962 17.9555 20.5833 20.1491 21.9776 21.64C23.3731 23.1319 25.3601 23.9022 27.7228 23.9022C29.6455 23.9022 31.3677 23.474 32.655 22.5956C33.9471 21.7139 34.7918 20.3845 34.9601 18.6102L34.9763 18.4401H31.0985L31.0777 18.5711ZM31.3052 13.0859C31.3052 11.8791 30.9388 10.9687 30.3228 10.3601C29.7063 9.75098 28.8226 9.42698 27.7556 9.42698C26.5952 9.42698 25.6963 9.80484 25.0538 10.4979C24.4359 11.1644 24.0416 12.1373 23.8956 13.3868H31.0346C31.1212 13.3868 31.1856 13.3624 31.2272 13.3232C31.2668 13.2859 31.3052 13.2167 31.3052 13.0859Z" fill="black"/>
<path fill-rule="evenodd" clip-rule="evenodd" d="M4.1219 16.7253L4.11073 16.5817H0L0.0079154 16.745C0.12462 19.1152 1.04393 20.9363 2.60851 22.1616C4.16901 23.3837 6.35464 24 8.98366 24C11.8089 24 14.052 23.3431 15.5922 22.1371C17.1373 20.9274 17.9594 19.1771 17.9594 17.0307C17.9594 15.3012 17.4314 13.9496 16.4834 12.9271C15.5384 11.9078 14.1876 11.2281 12.563 10.8161L7.74343 9.57722C6.67286 9.30304 5.95196 8.94587 5.49779 8.46751C5.04881 7.99462 4.84376 7.38521 4.84376 6.56548C4.84377 4.7299 6.57096 3.33044 9.08191 3.33041C10.2995 3.33041 11.3519 3.6727 12.1174 4.31674C12.8809 4.95906 13.3721 5.91235 13.4517 7.16224L13.461 7.30782H17.5354L17.5332 7.15014C17.4998 4.85621 16.5781 3.06744 15.0607 1.85536C13.5469 0.646236 11.4521 0.0200719 9.08191 0.0200719C6.71037 0.0200837 4.64953 0.671356 3.17795 1.83021C1.70353 2.99132 0.82756 4.65749 0.827547 6.66326C0.827547 8.52144 1.3709 9.92983 2.31455 10.9733C3.25561 12.0138 4.58208 12.6776 6.12496 13.0735L10.945 14.3122C11.9849 14.5869 12.7327 14.9289 13.2204 15.3984C13.7012 15.8613 13.9432 16.4621 13.9432 17.2915C13.9432 18.3342 13.5078 19.1753 12.6924 19.7611C11.8711 20.3511 10.6526 20.6897 9.08191 20.6897C7.74016 20.6896 6.55504 20.4079 5.68093 19.7777C4.81255 19.1515 4.23358 18.1688 4.1219 16.7253Z" fill="black"/>
</svg>
