<svg width="422" height="64" viewBox="0 0 422 64" fill="none" xmlns="http://www.w3.org/2000/svg">
<path d="M65.9343 55.8161C79.0788 55.8161 89.7607 45.206 89.7607 32.1861C89.7607 19.1499 79.0625 8.55599 65.9343 8.55599C52.7899 8.55599 42.108 19.1661 42.108 32.1861C42.0916 45.206 52.7899 55.8161 65.9343 55.8161ZM65.9343 14.6859C75.6541 14.6859 83.5636 22.5302 83.5636 32.1699C83.5636 41.8095 75.6541 49.6539 65.9343 49.6539C56.2146 49.6539 48.3051 41.8095 48.3051 32.1699C48.2888 22.5302 56.1983 14.6859 65.9343 14.6859ZM18.0369 14.7021H11.8724V49.6539H18.0369V14.7021ZM0 64.0001H97.0668V0H0V64.0001ZM96.1209 63.0782H0.962188V0.921912H96.1209V63.0782Z" fill="#2D2E83"/>
<path d="M132.997 20.1994C133.703 19.6951 134.813 19.443 136.326 19.443C139.251 19.443 142.781 20.3507 146.815 22.1662L150.396 13.3913C145.756 11.3741 141.167 10.3655 136.679 10.3655C131.585 10.3655 127.601 11.475 124.727 13.593C121.802 15.7615 120.39 18.7874 120.39 22.6705C120.39 24.7381 120.743 26.5536 121.398 28.0666C122.104 29.5795 123.113 30.9411 124.525 32.101C125.937 33.2609 128.055 34.4712 130.879 35.732C134.006 37.0936 135.922 38.0013 136.628 38.4552C137.334 38.9091 137.889 39.3125 138.192 39.7664C138.494 40.2203 138.696 40.7246 138.696 41.2793C138.696 42.1871 138.292 42.9435 137.486 43.5487C136.679 44.1538 135.418 44.406 133.653 44.406C131.636 44.406 129.417 44.1034 126.996 43.4478C124.575 42.8427 122.256 41.9349 120.037 40.8254V50.9619C122.155 51.9201 124.172 52.6261 126.139 53.0296C128.105 53.433 130.526 53.6347 133.401 53.6347C136.88 53.6347 139.856 53.08 142.428 51.9706C145 50.8611 146.966 49.2977 148.328 47.2301C149.69 45.2129 150.396 42.8931 150.396 40.2707C150.396 37.4466 149.69 35.0764 148.227 33.2104C146.765 31.3445 144.193 29.5795 140.461 27.9657C136.578 26.2511 134.208 25.0407 133.3 24.3851C132.442 23.7295 131.989 22.9731 131.989 22.1662C131.938 21.3593 132.291 20.7542 132.997 20.1994ZM157.053 52.9792H182.772V43.7504H168.752V35.7824H181.713V26.7049H168.752V20.0986H182.772V10.9707H157.053V52.9792ZM214.795 10.9707L205.718 23.8304C203.902 26.3015 202.742 28.0666 202.137 29.2265V10.9707H190.387V52.9792H202.137V38.9595L205.617 36.9423L214.19 53.0296H227.403L213.988 29.8316L227.655 11.0211H214.795V10.9707ZM249.945 10.3151C243.087 10.3151 237.842 12.181 234.211 15.8624C230.63 19.5438 228.815 24.8894 228.815 31.8993C228.815 38.9595 230.63 44.3556 234.261 48.037C237.892 51.7184 243.087 53.5843 249.895 53.5843C256.804 53.5843 261.998 51.7688 265.579 48.0874C269.159 44.406 270.924 39.0099 270.924 31.9497C270.924 24.839 269.159 19.4934 265.579 15.812C262.049 12.1306 256.854 10.3151 249.945 10.3151ZM256.451 41.128C255.039 43.0948 252.82 44.1034 249.844 44.1034C243.994 44.1034 241.12 40.0186 241.12 31.8993C241.12 23.6791 244.045 19.5943 249.945 19.5943C252.82 19.5943 254.988 20.6029 256.451 22.6201C257.913 24.6373 258.619 27.7135 258.619 31.8993C258.619 36.085 257.913 39.1612 256.451 41.128ZM277.127 52.9792H288.878V10.9707H277.127V52.9792ZM346.469 42.6914C344.401 42.6914 342.838 43.1452 341.779 44.1538C340.72 45.112 340.165 46.4736 340.165 48.2387C340.165 50.0038 340.72 51.315 341.829 52.2731C342.939 53.2313 344.502 53.6852 346.469 53.6852C348.385 53.6852 349.848 53.1809 350.907 52.2227C351.966 51.2645 352.521 49.9029 352.521 48.1883C352.521 46.4232 352.016 45.0616 350.957 44.1034C349.949 43.1957 348.436 42.6914 346.469 42.6914ZM307.688 10.7689L293.568 52.9792H306.427L308.596 45.112H322.666L324.784 52.9792H337.593L323.271 10.7689H307.688ZM311.067 35.7824C312.882 29.176 314.042 24.7886 314.547 22.5192C315.051 20.3003 315.404 18.6865 315.606 17.6779C315.807 18.7369 316.211 20.4516 316.816 22.9227C317.421 25.3433 317.976 27.3605 318.379 28.8734L320.245 35.7824H311.067ZM359.833 52.9792H371.583V10.9707H359.833V52.9792ZM416.164 15.812C412.583 12.1306 407.389 10.3151 400.48 10.3151C393.621 10.3151 388.377 12.181 384.746 15.8624C381.165 19.5438 379.35 24.8894 379.35 31.8993C379.35 38.9595 381.165 44.3556 384.796 48.037C388.427 51.7184 393.621 53.5843 400.429 53.5843C407.338 53.5843 412.533 51.7688 416.113 48.0874C419.694 44.406 421.459 39.0099 421.459 31.9497C421.509 24.839 419.744 19.443 416.164 15.812ZM407.036 41.128C405.624 43.0948 403.405 44.1034 400.429 44.1034C394.58 44.1034 391.705 40.0186 391.705 31.8993C391.705 23.6791 394.63 19.5943 400.53 19.5943C403.405 19.5943 405.573 20.6029 407.036 22.6201C408.498 24.6373 409.204 27.7135 409.204 31.8993C409.204 36.085 408.448 39.1612 407.036 41.128Z" fill="#2D2E83"/>
</svg>
