<svg width="928" height="145" viewBox="0 0 928 145" fill="none" xmlns="http://www.w3.org/2000/svg">
<path d="M868.099 63.919C868.912 61.0041 869.927 58.5056 871.348 56.2154C872.77 53.9251 874.597 52.0513 876.831 50.802C879.064 49.3446 881.704 48.72 884.75 48.72C887.796 48.72 890.435 49.3446 892.669 50.802C894.902 52.0513 896.73 53.9251 898.354 56.0072C899.776 58.2974 900.994 60.7959 901.603 63.7108C902.415 66.6256 902.822 69.5405 902.822 72.6636C902.822 75.7867 902.415 78.7015 901.806 81.6164C900.994 84.5313 899.979 87.2379 898.557 89.5282C897.136 91.8185 895.309 93.6923 893.075 95.1497C890.841 96.6072 888.202 97.2318 884.953 97.2318C881.907 97.2318 879.267 96.6072 877.034 95.1497C874.8 93.6923 872.77 92.0267 871.348 89.7364C869.927 87.4461 868.709 84.9477 868.099 82.0328C867.287 79.1179 867.084 76.2031 867.084 73.08C867.084 69.7487 867.287 66.8338 868.099 63.919ZM902.212 115.554C907.492 113.055 911.959 109.516 915.817 105.352C919.675 101.188 922.518 96.1908 924.751 90.5692C926.985 84.9477 928 79.1179 928 73.08C928 67.2503 926.985 61.4205 924.954 55.799C922.924 50.1774 920.081 45.1805 916.223 40.8082C912.568 36.4359 908.101 32.8964 902.822 30.1897C897.542 27.4831 891.654 26.2338 885.359 26.2338C879.064 26.2338 873.176 27.4831 868.099 29.9815C862.82 32.48 858.353 36.0195 854.495 40.1836C850.637 44.5559 847.591 49.3446 845.561 54.9661C843.327 60.5877 842.312 66.4174 842.312 72.4554C842.312 78.4933 843.327 84.1149 845.357 89.7364C847.388 95.3579 850.231 100.355 854.089 104.727C857.744 109.099 862.414 112.639 867.693 115.346C872.973 118.052 878.861 119.302 885.156 119.302C891.044 119.51 896.933 118.261 902.212 115.554ZM830.941 26.8585H806.371V118.677H830.941V26.8585ZM791.142 94.9415H771.649V118.677H791.142V94.9415ZM726.978 83.9067H710.734L719.059 53.0923L726.978 83.9067ZM701.799 118.677L707.079 100.771H730.836L736.318 118.677H762.309L729.008 26.8585H709.109L675.605 118.677H701.799ZM669.514 26.8585H644.944V118.677H669.514V26.8585ZM574.282 63.919C575.094 61.0041 576.109 58.5056 577.531 56.2154C578.952 53.9251 580.78 52.0513 583.013 50.802C585.247 49.3446 587.887 48.72 590.932 48.72C593.978 48.72 596.618 49.3446 598.851 50.802C601.085 52.0513 602.912 53.9251 604.537 56.0072C605.958 58.2974 607.177 60.7959 607.786 63.7108C608.598 66.6256 609.004 69.5405 609.004 72.6636C609.004 75.7867 608.598 78.7015 607.989 81.6164C607.177 84.5313 606.161 87.2379 604.74 89.5282C603.319 91.8185 601.491 93.6923 599.258 95.1497C597.024 96.6072 594.384 97.2318 591.135 97.2318C588.09 97.2318 585.45 96.6072 583.216 95.1497C580.983 93.6923 579.155 92.0267 577.531 89.7364C576.109 87.4461 574.891 84.9477 574.282 82.0328C573.47 79.1179 573.267 76.2031 573.267 73.08C573.267 69.7487 573.47 66.8338 574.282 63.919ZM608.395 115.554C613.674 113.055 618.141 109.516 621.999 105.352C625.857 101.188 628.7 96.1908 630.934 90.5692C633.167 84.9477 634.183 79.1179 634.183 73.08C634.183 67.2503 633.167 61.4205 631.137 55.799C629.106 50.1774 626.264 45.1805 622.406 40.8082C618.548 36.4359 614.08 32.8964 608.801 30.1897C603.522 27.4831 597.633 26.2338 591.338 26.2338C585.044 26.2338 579.155 27.4831 574.079 29.9815C568.8 32.48 564.332 36.0195 560.474 40.1836C556.616 44.5559 553.571 49.3446 551.54 54.9661C549.307 60.5877 548.291 66.4174 548.291 72.4554C548.291 78.4933 549.307 84.1149 551.337 89.7364C553.368 95.3579 556.21 100.355 560.068 104.727C563.723 109.099 568.393 112.639 573.47 115.346C578.749 118.052 584.638 119.302 590.932 119.302C597.227 119.51 603.116 118.261 608.395 115.554ZM494.685 118.677V91.4021L502.604 82.0328L526.159 118.677H551.946L517.021 67.8749L549.51 26.6503H524.331L494.482 64.1272V26.6503H470.116V118.469H494.685V118.677ZM417.728 96.6072V82.0328H450.217V61.6287H417.728V48.72H455.902V26.8585H393.159V118.677H457.121V96.6072H417.728ZM379.554 36.0195C377.524 34.9785 375.29 33.9374 372.651 32.6882C370.214 31.439 367.371 30.3979 364.528 29.3569C361.686 28.3159 358.64 27.4831 355.594 26.8585C352.345 26.442 349.3 26.0256 345.848 26.0256C341.38 26.0256 337.116 26.6503 333.258 28.1077C329.197 29.3569 325.745 31.439 322.497 33.9374C319.451 36.4359 317.014 39.7672 315.187 43.7231C313.359 47.679 312.547 52.0513 312.547 57.2564C312.547 60.5877 312.953 63.5026 313.968 66.2092C314.781 68.7077 316.202 71.2062 318.029 73.08C319.857 75.162 322.293 76.8277 325.136 78.4933C327.979 80.159 331.431 81.6164 335.289 82.8656C337.929 83.9067 340.568 84.5313 343.005 85.3641C345.442 85.9887 347.472 86.8215 349.3 87.4462C351.127 88.0708 352.548 88.9036 353.564 89.7364C354.579 90.5692 355.188 91.8185 355.188 93.0677C355.188 94.3169 354.579 95.1497 353.564 95.9826C352.548 96.8154 350.721 97.0236 347.878 97.0236C344.426 97.0236 340.771 96.6072 337.522 95.5662C334.071 94.5251 331.025 93.2759 328.385 92.0267C325.136 90.5692 322.09 88.9036 319.248 87.0297L308.486 109.099C311.126 110.765 314.171 112.223 317.217 113.472C320.466 114.721 323.715 115.97 326.964 116.803C330.213 117.636 333.868 118.469 337.319 119.093C340.771 119.718 344.223 119.926 347.472 119.926C351.533 119.926 355.594 119.51 359.858 118.469C363.919 117.428 367.574 115.762 370.823 113.68C374.072 111.39 376.712 108.475 378.742 104.727C380.773 100.979 381.788 96.399 381.788 90.7774C381.788 86.4051 381.179 82.8656 379.96 79.7426C378.539 76.6195 376.712 73.9128 374.275 71.8308C371.838 69.7487 368.996 67.8749 365.747 66.4174C362.498 64.96 358.64 63.5026 354.579 62.2533C351.939 61.4205 349.706 60.5877 347.675 59.9631C345.645 59.3385 343.817 58.7138 342.396 58.0892C340.974 57.4646 339.959 56.6318 339.147 56.0072C338.335 55.1744 337.929 54.1333 337.929 52.8841C337.929 51.2185 338.538 50.1774 339.959 49.3446C341.177 48.72 343.005 48.3036 345.238 48.3036C347.878 48.3036 350.721 48.72 353.564 49.761C356.406 50.5938 358.843 51.6349 361.28 52.6759C363.919 53.9251 366.559 55.1744 369.199 56.84L379.554 36.0195Z" fill="white"/>
<path d="M48.1284 38.3136H35.698V110.152H48.1284V38.3136Z" fill="white"/>
<path d="M12.4304 12.4519H72.6701H85.1005H206.217V133.778H85.1005H72.6701H12.4304V12.4519ZM0 146.55H218.966V0H0V146.55Z" fill="white"/>
<path d="M145.978 38.3136C165.739 38.3136 181.676 54.2776 181.676 74.073C181.676 93.8683 165.739 109.832 145.978 109.832C126.217 109.832 110.28 93.8683 110.28 74.073C110.28 54.2776 126.217 38.3136 145.978 38.3136ZM145.978 122.604C172.751 122.604 194.425 100.892 194.425 74.073C194.425 47.2534 172.751 25.8617 145.978 25.8617C119.205 25.8617 97.5313 47.5727 97.5313 74.3922C97.5313 101.212 119.205 122.604 145.978 122.604Z" fill="white"/>
</svg>